<svg xmlns="http://www.w3.org/2000/svg" viewBox="0 0 508.8 219.9"><path fill="#2164F3" d="M487.1 39.4c1.7 0 3.4.4 5 1.3s2.9 2.1 3.8 3.7c.9 1.6 1.4 3.3 1.4 5.1 0 1.7-.4 3.4-1.3 5s-2.1 2.8-3.7 3.7c-1.6.9-3.3 1.3-5 1.3-1.7 0-3.4-.4-5-1.3s-2.8-2.1-3.7-3.7c-.9-1.6-1.3-3.3-1.3-5 0-1.8.4-3.4 1.4-5.1.9-1.6 2.2-2.9 3.8-3.7 1.2-.9 2.9-1.3 4.6-1.3m0 1.6c-1.4 0-2.8.4-4.1 1.1-1.3.7-2.4 1.8-3.2 3.1-.8 1.4-1.1 2.8-1.1 4.2 0 1.5.4 2.8 1.1 4.2.7 1.3 1.8 2.4 3.1 3.1 1.3.7 2.7 1.1 4.2 1.1s2.9-.4 4.2-1.1c1.3-.7 2.4-1.8 3.1-3.1.7-1.3 1.1-2.7 1.1-4.2s-.4-2.9-1.1-4.2c-.8-1.4-1.8-2.4-3.1-3.1-1.4-.7-2.8-1.1-4.2-1.1m-4.4 14V44.2h3.7c1.3 0 2.2.1 2.8.3.6.2 1 .6 1.4 1 .3.5.5 1 .5 1.6 0 .8-.3 1.5-.8 2.1-.6.6-1.3.9-2.3 1 .4.2.7.4.9.6.4.4 1 1.1 1.6 2.2l1.3 2.1h-2.2l-1-1.7c-.8-1.3-1.4-2.2-1.8-2.5-.3-.3-.8-.4-1.4-.4h-1V55h-1.7zm1.7-6.1h2.1c1 0 1.7-.2 2.1-.5.4-.3.6-.7.6-1.2 0-.3-.1-.6-.3-.9-.2-.3-.4-.4-.7-.6-.3-.1-.9-.2-1.8-.2h-2v3.4z"/><g fill-rule="evenodd" clip-rule="evenodd" fill="#2164F3"><path d="M468.7 48.5c-1.6-1.9-3.8-2.8-6.7-2.8-2.9 0-5.1 1-6.7 3-1.5 2-2.4 5-2.4 8.9v28.3c-3.6-4-7.3-6.8-11.1-8.7-2.4-1.2-5.1-2-8.2-2.5-1.8-.2-3.7-.4-5.7-.4-9.5 0-17.2 3.4-23.1 10-5.8 6.7-8.7 16-8.7 28 0 5.6.7 10.9 2.2 15.8 1.5 4.8 3.6 9 6.5 12.6 2.9 3.6 6.3 6.3 10.2 8.3 3.9 1.9 8.1 2.9 12.7 2.9 2.1 0 4.1-.2 5.9-.5 1.2-.2 2.4-.5 3.6-.9 2.9-1 5.6-2.4 8.1-4.2 2.5-1.9 5.1-4.3 7.6-7.2v1.9c0 3.5.9 6.2 2.5 8.1 1.7 1.9 3.9 2.8 6.5 2.8 2.7 0 4.8-.9 6.5-2.7 1.7-1.9 2.5-4.6 2.5-8.2V56.6c.1-3.5-.7-6.2-2.2-8.1zm-19.3 78c-1.7 3.6-3.9 6.3-6.6 8-2.8 1.7-5.8 2.6-9.2 2.6h-.1c-3.4 0-6.4-.9-9.2-2.7-2.8-1.9-5-4.6-6.6-8.2-1.6-3.7-2.4-8.1-2.4-13.3 0-4.9.7-9.2 2.3-12.9 1.5-3.7 3.7-6.6 6.4-8.6 2.8-2 5.9-3 9.4-3h.2c3.3 0 6.3 1 9.1 2.9s5 4.7 6.7 8.4c1.7 3.7 2.5 8.1 2.5 13.1 0 5.6-.8 10.1-2.5 13.7zM390.2 127.3c-1.2-1.1-2.8-1.6-4.8-1.6-1.8 0-3.2.4-4.1 1.2-2.4 2.2-4.3 4-5.8 5.3-1.5 1.2-3.2 2.5-5 3.7-1.7 1.1-3.6 2-5.5 2.5-1.9.6-4 .8-6.3.8-.5 0-1 0-1.4-.1-2.9-.2-5.5-1-7.9-2.5-2.9-1.7-5.1-4.1-6.8-7.4-1.7-3.3-2.5-7.2-2.6-11.5h37.4c5 0 8.9-.7 11.7-2.1 2.8-1.5 4.2-4.6 4.2-9.4 0-5.2-1.4-10.3-4-15.3-2.7-5-6.6-9.1-12-12.2-5.3-3.2-11.7-4.7-19.2-4.7h-.6c-5.5.1-10.6 1-15.1 2.7-4.7 1.9-8.7 4.5-12 7.9-3.2 3.5-5.6 7.6-7.3 12.5-1.7 4.8-2.5 10.1-2.5 15.7 0 12 3.4 21.5 10.2 28.5 6.4 6.6 15.4 10.1 26.7 10.5.6.1 1.3.1 2 .1 5.3 0 10.1-.7 14.3-2.1 4.2-1.4 7.6-3.2 10.3-5.3 2.7-2.2 4.8-4.4 6.1-6.7 1.4-2.3 2-4.3 2-6-.1-1.9-.8-3.4-2-4.5zm-44.6-35c3-3.3 6.9-4.9 11.7-4.9h.1c5 0 9 1.6 12 4.8 3 3.2 4.8 8.1 5.3 14.7H340c.6-6.4 2.5-11.3 5.6-14.6zM308.9 125.7c-1.9 0-3.2.4-4.2 1.2-2.4 2.2-4.3 4-5.8 5.3-1.5 1.2-3.1 2.5-4.9 3.7-1.8 1.1-3.6 2-5.5 2.5-1.9.6-4 .8-6.3.8-.5 0-1 0-1.4-.1-2.9-.2-5.5-1-7.9-2.5-2.8-1.7-5.1-4.1-6.7-7.4-1.7-3.3-2.6-7.2-2.7-11.5h37.4c5 0 8.9-.7 11.7-2.1 2.7-1.5 4.1-4.6 4.1-9.4 0-5.2-1.3-10.3-4-15.3s-6.7-9.1-12-12.2c-5.3-3.2-11.8-4.7-19.2-4.7h-.6c-5.5.1-10.5 1-15.1 2.7-4.7 1.9-8.7 4.5-11.9 7.9-3.2 3.5-5.7 7.6-7.4 12.5-1.7 4.8-2.5 10.1-2.5 15.7 0 12 3.5 21.5 10.3 28.5 6.4 6.6 15.3 10.1 26.7 10.5.7.1 1.3.1 2 .1 5.4 0 10.1-.7 14.3-2.1 4.2-1.4 7.6-3.2 10.3-5.3 2.8-2.2 4.8-4.4 6.1-6.7 1.4-2.3 2-4.3 2-6 0-1.9-.6-3.5-1.8-4.5-1.4-1-3-1.6-5-1.6zM269 92.3c3-3.3 6.9-4.9 11.7-4.9h.1c5 0 9 1.6 12 4.8 3.1 3.2 4.8 8.1 5.3 14.7h-34.7c.7-6.4 2.6-11.3 5.6-14.6zM54.6 139.2V93.6c1.3.1 2.5.2 3.8.2 6.2 0 12-1.7 17-4.6v50.1c0 4.3-1 7.4-2.9 9.5-1.9 2.1-4.5 3.2-7.6 3.2-3 0-5.5-1-7.4-3.2-1.9-2.2-2.9-5.4-2.9-9.6zM234.7 48.5c-1.6-1.9-3.8-2.8-6.6-2.8-2.9 0-5.1 1-6.7 3-1.6 2-2.4 5-2.4 8.9v28.3c-3.6-4-7.3-6.8-11.1-8.7-2.4-1.2-5.1-2-8.2-2.5-1.8-.2-3.7-.4-5.7-.4-9.5 0-17.2 3.4-23.1 10-5.8 6.7-8.7 16-8.7 28 0 5.6.7 10.9 2.2 15.8 1.5 4.8 3.7 9 6.5 12.6 2.8 3.6 6.3 6.3 10.2 8.3 3.9 1.9 8.1 2.9 12.7 2.9 2 0 4-.2 5.9-.5 1.2-.2 2.4-.5 3.6-.9 2.9-1 5.6-2.4 8.1-4.2 2.5-1.9 5-4.3 7.6-7.2v1.9c0 3.5.9 6.2 2.5 8.1 1.7 1.9 3.9 2.8 6.5 2.8 2.5 0 4.8-.9 6.5-2.7 1.7-1.9 2.5-4.6 2.5-8.2V56.6c0-3.5-.8-6.2-2.3-8.1zm-19.2 78c-1.7 3.6-3.9 6.3-6.7 8-2.7 1.7-5.8 2.6-9.1 2.6h-.1c-3.3 0-6.4-.9-9.2-2.7-2.9-1.9-5-4.6-6.6-8.2-1.6-3.7-2.4-8.1-2.4-13.3 0-4.9.7-9.2 2.2-12.9 1.5-3.7 3.7-6.6 6.4-8.6s5.9-3 9.4-3h.2c3.3 0 6.3 1 9.1 2.9s5.1 4.7 6.8 8.4c1.6 3.7 2.5 8.1 2.5 13.1-.1 5.6-.9 10.1-2.5 13.7zM106 84.7v2.4c3.4-4.5 7.1-7.7 11-9.8 4-2 8.6-3.1 13.8-3.1 5 0 9.6 1.1 13.5 3.3 4 2.2 6.9 5.3 8.9 9.3 1.3 2.4 2.1 4.9 2.5 7.6.4 2.7.6 6.1.6 10.3v35.5c0 3.8-.9 6.7-2.7 8.7-1.7 2-4 3-6.8 3s-5.1-1-6.9-3c-1.8-2-2.7-4.9-2.7-8.6v-31.8c0-6.3-.9-11.2-2.6-14.5-1.7-3.3-5.3-5-10.5-5-3.4 0-6.5 1.1-9.3 3-2.8 2-4.9 4.8-6.2 8.4-.9 2.9-1.4 8.1-1.4 16v23.9c0 3.9-.9 6.7-2.7 8.7-1.8 1.9-4.1 2.9-6.9 2.9-2.8 0-5-1-6.8-3-1.8-2-2.7-4.9-2.7-8.6V85c0-3.7.8-6.4 2.4-8.1 1.5-1.8 3.7-2.7 6.5-2.7 1.7 0 3.2.4 4.5 1.2 1.4.8 2.5 2 3.3 3.6.8 1.6 1.2 3.5 1.2 5.7zM54.7 29.9c12.9-4.6 27.6-4.4 38.6 5.1 2 1.9 4.4 4.3 5.3 7.2 1.1 3.6-3.9-.4-4.6-.9-3.6-2.4-7.2-4.3-11.2-5.7-21.7-6.7-42.2 5.4-55 24.2-5.3 8.3-8.8 17-11.7 26.7-.3 1.1-.6 2.4-1.1 3.3-.6 1.1-.2-2.8-.2-3 .4-4 1.2-7.8 2.2-11.6 6-20.5 19-37.5 37.7-45.3z"/><path d="M71.5 80.6c-7.7 4-17.2.9-21.1-6.9-4-7.8-.9-17.2 6.9-21.1 7.7-4 17.2-.9 21.1 6.9 4 7.7.9 17.2-6.9 21.1z"/></g><g fill="#F60"><path d="M59.2 171.1v14.2h17.4v-14.2H81v33h-4.4V189H59.2v15.1h-4.4v-33h4.4zM85.8 187.3c.5-1.5 1.2-2.8 2.2-4 1-1.1 2.2-2 3.6-2.7 1.4-.6 3.1-1 5-1s3.6.3 5 1c1.4.6 2.6 1.5 3.6 2.7 1 1.1 1.7 2.4 2.2 4 .5 1.5.7 3.2.7 4.9 0 1.8-.2 3.4-.7 4.9-.5 1.5-1.2 2.8-2.2 3.9-1 1.1-2.2 2-3.6 2.6-1.4.6-3.1.9-5 .9s-3.5-.3-5-.9c-1.4-.6-2.7-1.5-3.6-2.6-1-1.1-1.7-2.4-2.2-3.9-.5-1.5-.7-3.1-.7-4.9-.1-1.8.2-3.4.7-4.9zm4 8.7c.4 1.1.9 2.1 1.6 2.8.7.8 1.5 1.3 2.4 1.7.9.4 1.9.6 2.9.6s2-.2 2.9-.6c.9-.4 1.7-1 2.4-1.7.7-.8 1.2-1.7 1.6-2.8.4-1.1.6-2.4.6-3.9 0-1.4-.2-2.7-.6-3.9-.4-1.1-.9-2.1-1.6-2.8-.7-.8-1.5-1.4-2.4-1.8-.9-.4-1.9-.6-2.9-.6s-2 .2-2.9.6c-.9.4-1.7 1-2.4 1.8s-1.2 1.7-1.6 2.8c-.4 1.1-.6 2.4-.6 3.9s.2 2.8.6 3.9zM131.2 204.1l-4.8-19h-.1l-4.8 19h-4.2l-7.7-23.9h4.3l5.4 19.5h.1l4.8-19.5h4.3l5 19.5h.1l5.4-19.5h4.1l-7.6 23.9h-4.3zM167.4 180.2v3.5h-4.8v14.8c0 .5 0 .8.1 1.1.1.3.2.5.4.6.2.2.5.3.9.3s.9.1 1.5.1h1.8v3.5h-3c-1 0-1.9-.1-2.6-.2-.7-.1-1.3-.4-1.8-.8-.4-.4-.8-.9-1-1.6-.2-.7-.3-1.6-.3-2.7v-15.2h-4.1v-3.5h4.1v-7.2h3.9v7.2h4.9zM174.6 171.1v12.6h.1c.3-.7.7-1.4 1.3-1.9.6-.5 1.2-.9 1.9-1.2.7-.3 1.4-.6 2.2-.7.8-.2 1.5-.2 2.2-.2 1.6 0 2.9.2 3.9.6 1 .4 1.9 1 2.5 1.8.6.8 1.1 1.7 1.4 2.7.3 1.1.4 2.2.4 3.5V204h-3.9v-16.2c0-1.5-.4-2.6-1.3-3.5-.9-.9-2-1.3-3.6-1.3-1.2 0-2.2.2-3.1.6-.9.4-1.6.9-2.2 1.6-.6.7-1 1.5-1.3 2.4-.3.9-.4 1.9-.4 3v13.5h-3.9v-33h3.8zM212.1 202.6c-1.8 1.4-4 2-6.7 2-1.9 0-3.6-.3-5-.9-1.4-.6-2.6-1.5-3.5-2.6-1-1.1-1.7-2.4-2.1-4-.5-1.5-.7-3.2-.8-5 0-1.8.3-3.5.8-5 .6-1.5 1.3-2.8 2.3-3.9 1-1.1 2.2-2 3.6-2.6 1.4-.6 2.9-.9 4.5-.9 2.1 0 3.9.4 5.3 1.3s2.5 2 3.4 3.3c.8 1.4 1.4 2.8 1.8 4.4.3 1.6.5 3.1.4 4.6H198c0 1 .1 2 .4 3 .3.9.7 1.8 1.3 2.5.6.7 1.4 1.3 2.4 1.7 1 .4 2.1.6 3.4.6 1.7 0 3-.4 4.1-1.2 1.1-.8 1.8-1.9 2.1-3.5h3.9c-.6 2.8-1.7 4.8-3.5 6.2zm-1-15.4c-.4-.8-.8-1.5-1.4-2.1-.6-.6-1.3-1.1-2.1-1.4-.8-.4-1.7-.5-2.7-.5-1 0-1.9.2-2.7.5-.8.4-1.5.8-2.1 1.5-.6.6-1 1.3-1.4 2.1-.3.8-.5 1.7-.6 2.6h13.7c-.1-1-.3-1.8-.7-2.7zM262.7 187.3c.5-1.5 1.2-2.8 2.2-4 1-1.1 2.2-2 3.6-2.7 1.4-.6 3.1-1 5-1s3.6.3 5 1c1.4.6 2.6 1.5 3.6 2.7 1 1.1 1.7 2.4 2.2 4 .5 1.5.7 3.2.7 4.9 0 1.8-.2 3.4-.7 4.9-.5 1.5-1.2 2.8-2.2 3.9-1 1.1-2.2 2-3.6 2.6-1.4.6-3.1.9-5 .9s-3.5-.3-5-.9c-1.4-.6-2.7-1.5-3.6-2.6-1-1.1-1.7-2.4-2.2-3.9-.5-1.5-.7-3.1-.7-4.9 0-1.8.2-3.4.7-4.9zm4 8.7c.4 1.1.9 2.1 1.6 2.8.7.8 1.5 1.3 2.4 1.7.9.4 1.9.6 2.9.6s2-.2 2.9-.6c.9-.4 1.7-1 2.4-1.7.7-.8 1.2-1.7 1.6-2.8.4-1.1.6-2.4.6-3.9 0-1.4-.2-2.7-.6-3.9-.4-1.1-.9-2.1-1.6-2.8-.7-.8-1.5-1.4-2.4-1.8-.9-.4-1.9-.6-2.9-.6s-2 .2-2.9.6c-.9.4-1.7 1-2.4 1.8s-1.2 1.7-1.6 2.8c-.4 1.1-.6 2.4-.6 3.9s.2 2.8.6 3.9zM292.2 180.2v5h.1c1-1.9 2.1-3.4 3.5-4.3 1.4-.9 3.1-1.4 5.3-1.3v4.2c-1.6 0-2.9.2-4 .6-1.1.4-2 1.1-2.7 1.9-.7.8-1.2 1.8-1.5 3-.3 1.2-.5 2.5-.5 4.1V204h-3.9v-23.9h3.7zM307 171.1v33h-3.9v-33h3.9zM329.4 204.1v-3.2h-.1c-.6 1.3-1.7 2.3-3 2.9-1.4.6-2.9.9-4.6.9-1.8 0-3.5-.3-4.8-1-1.4-.7-2.5-1.6-3.4-2.7-.9-1.1-1.6-2.5-2.1-4s-.7-3.1-.7-4.8c0-1.7.2-3.3.7-4.8.4-1.5 1.1-2.8 2-4 .9-1.1 2-2 3.4-2.7 1.4-.7 3-1 4.8-1 .6 0 1.3.1 2 .2s1.4.3 2.1.6c.7.3 1.4.7 2 1.2.6.5 1.2 1.1 1.6 1.8h.1v-12.3h3.9v33h-3.9zm-14.1-8.5c.3 1.1.7 2 1.3 2.8.6.8 1.4 1.5 2.3 2 .9.5 2 .7 3.3.7 1.3 0 2.4-.3 3.4-.8.9-.5 1.7-1.2 2.3-2.1.6-.8 1-1.8 1.3-2.9.3-1.1.4-2.2.4-3.3 0-1.2-.1-2.3-.4-3.4-.3-1.1-.7-2.1-1.3-2.9-.6-.8-1.4-1.5-2.3-2-1-.5-2.1-.8-3.5-.8-1.3 0-2.4.3-3.4.8-.9.5-1.7 1.2-2.2 2.1-.6.9-1 1.8-1.2 3-.2 1.1-.4 2.2-.4 3.4-.1 1.3.1 2.4.4 3.4zM380 187.3c.5-1.5 1.2-2.8 2.2-4 1-1.1 2.2-2 3.6-2.7 1.4-.6 3.1-1 5-1s3.6.3 5 1c1.4.6 2.6 1.5 3.6 2.7 1 1.1 1.7 2.4 2.2 4 .5 1.5.7 3.2.7 4.9 0 1.8-.2 3.4-.7 4.9-.5 1.5-1.2 2.8-2.2 3.9-1 1.1-2.2 2-3.6 2.6-1.4.6-3.1.9-5 .9s-3.5-.3-5-.9c-1.4-.6-2.7-1.5-3.6-2.6-1-1.1-1.7-2.4-2.2-3.9-.5-1.5-.7-3.1-.7-4.9 0-1.8.2-3.4.7-4.9zm4 8.7c.4 1.1.9 2.1 1.6 2.8.7.8 1.5 1.3 2.4 1.7.9.4 1.9.6 2.9.6s2-.2 2.9-.6c.9-.4 1.7-1 2.4-1.7.7-.8 1.2-1.7 1.6-2.8.4-1.1.6-2.4.6-3.9 0-1.4-.2-2.7-.6-3.9-.4-1.1-.9-2.1-1.6-2.8-.7-.8-1.5-1.4-2.4-1.8-.9-.4-1.9-.6-2.9-.6s-2 .2-2.9.6c-.9.4-1.7 1-2.4 1.8s-1.2 1.7-1.6 2.8c-.4 1.1-.6 2.4-.6 3.9.1 1.5.2 2.8.6 3.9zM409.5 180.2v5h.1c1-1.9 2.1-3.4 3.5-4.3 1.4-.9 3.1-1.4 5.3-1.3v4.2c-1.6 0-2.9.2-4 .6-1.1.4-2 1.1-2.7 1.9-.7.8-1.2 1.8-1.5 3-.3 1.2-.5 2.5-.5 4.1V204h-3.9v-23.9h3.7zM424.3 171.1v19.5l10.9-10.4h5.3l-9.5 8.7 10.2 15.2h-5l-8.2-12.5-3.7 3.4v9.1h-3.9v-33h3.9zM446 198.8c.4.6.9 1.1 1.5 1.4.6.4 1.3.6 2 .8.8.2 1.5.2 2.3.2.6 0 1.3 0 1.9-.1.7-.1 1.3-.3 1.9-.5.6-.2 1-.6 1.4-1.1.4-.5.6-1.1.6-1.8 0-1-.4-1.8-1.2-2.3-.8-.5-1.7-.9-2.9-1.3-1.2-.3-2.4-.6-3.8-.9-1.4-.3-2.6-.6-3.8-1.1-1.2-.5-2.1-1.1-2.9-2-.8-.9-1.2-2.1-1.2-3.6 0-1.2.3-2.2.8-3.1.5-.9 1.2-1.6 2.1-2.1.8-.5 1.8-.9 2.9-1.2 1.1-.3 2.1-.4 3.2-.4 1.4 0 2.6.1 3.7.3 1.1.2 2.1.6 3 1.2.9.6 1.6 1.3 2.1 2.3.5 1 .8 2.2.9 3.6h-3.9c-.1-.8-.3-1.4-.6-1.9s-.8-.9-1.3-1.2c-.5-.3-1.1-.5-1.7-.7-.6-.1-1.3-.2-1.9-.2-.6 0-1.2 0-1.8.1-.6.1-1.1.3-1.6.5s-.9.5-1.2.9c-.3.4-.5.9-.5 1.5 0 .7.2 1.2.7 1.7.5.4 1.1.8 1.8 1.1.7.3 1.6.5 2.5.7.9.2 1.8.4 2.8.6 1 .2 1.9.5 2.9.8.9.3 1.8.7 2.5 1.2s1.3 1.1 1.8 1.9c.4.8.7 1.7.7 2.9 0 1.4-.3 2.6-.9 3.6-.6 1-1.4 1.7-2.4 2.3-1 .6-2.1 1-3.3 1.2-1.2.2-2.4.3-3.6.3-1.3 0-2.6-.1-3.8-.4-1.2-.3-2.3-.7-3.2-1.4-.9-.6-1.7-1.5-2.2-2.5-.6-1-.9-2.3-.9-3.8h3.9c.1 1.1.3 1.9.7 2.5zM470.9 199v5.1h-5.1V199h5.1zM249.9 204.1l-4.8-19h-.1l-4.8 19H236l-7.7-23.9h4.3l5.4 19.5h.1l4.8-19.5h4.3l5 19.5h.1l5.4-19.5h4.1l-7.6 23.9h-4.3zM367.2 204.1l-4.8-19h-.1l-4.8 19h-4.2l-7.7-23.9h4.3l5.4 19.5h.1l4.8-19.5h4.3l5 19.5h.1l5.4-19.5h4.1l-7.6 23.9h-4.3z"/></g><g fill="#F60"><path d="M459.8 170.7h4.6v.9h-1.8v4.8h-1v-4.8h-1.8v-.9zM465.1 170.7h1.4l1.6 4.5 1.5-4.5h1.4v5.7h-1V172l-1.6 4.4h-.8L466 172v4.4h-1v-5.7z"/></g></svg>