<?xml version="1.0" encoding="utf-8"?>
<!-- Generator: Adobe Illustrator 19.1.0, SVG Export Plug-In . SVG Version: 6.00 Build 0)  -->
<!DOCTYPE svg PUBLIC "-//W3C//DTD SVG 1.1//EN" "http://www.w3.org/Graphics/SVG/1.1/DTD/svg11.dtd">
<svg version="1.1" id="Layer_1" xmlns="http://www.w3.org/2000/svg" xmlns:xlink="http://www.w3.org/1999/xlink" x="0px" y="0px"
	 viewBox="0 0 508.8 219.9" enable-background="new 0 0 508.8 219.9" xml:space="preserve">
<g>
	<g>
		<g>
			<path fill="#2164F3" d="M487.1,39.4c1.7,0,3.4,0.4,5,1.3c1.6,0.9,2.9,2.1,3.8,3.7c0.9,1.6,1.4,3.3,1.4,5.1c0,1.7-0.4,3.4-1.3,5
				c-0.9,1.6-2.1,2.8-3.7,3.7c-1.6,0.9-3.3,1.3-5,1.3c-1.7,0-3.4-0.4-5-1.3c-1.6-0.9-2.8-2.1-3.7-3.7c-0.9-1.6-1.3-3.3-1.3-5
				c0-1.8,0.4-3.4,1.4-5.1c0.9-1.6,2.2-2.9,3.8-3.7C483.7,39.8,485.4,39.4,487.1,39.4 M487.1,41c-1.4,0-2.8,0.4-4.1,1.1
				c-1.3,0.7-2.4,1.8-3.2,3.1c-0.8,1.4-1.1,2.8-1.1,4.2c0,1.5,0.4,2.8,1.1,4.2c0.7,1.3,1.8,2.4,3.1,3.1c1.3,0.7,2.7,1.1,4.2,1.1
				c1.5,0,2.9-0.4,4.2-1.1c1.3-0.7,2.4-1.8,3.1-3.1c0.7-1.3,1.1-2.7,1.1-4.2c0-1.5-0.4-2.9-1.1-4.2c-0.8-1.4-1.8-2.4-3.1-3.1
				C489.9,41.4,488.5,41,487.1,41 M482.7,55V44.2h3.7c1.3,0,2.2,0.1,2.8,0.3c0.6,0.2,1,0.6,1.4,1c0.3,0.5,0.5,1,0.5,1.6
				c0,0.8-0.3,1.5-0.8,2.1c-0.6,0.6-1.3,0.9-2.3,1c0.4,0.2,0.7,0.4,0.9,0.6c0.4,0.4,1,1.1,1.6,2.2l1.3,2.1h-2.2l-1-1.7
				c-0.8-1.3-1.4-2.2-1.8-2.5c-0.3-0.3-0.8-0.4-1.4-0.4h-1V55H482.7z M484.4,48.9h2.1c1,0,1.7-0.2,2.1-0.5c0.4-0.3,0.6-0.7,0.6-1.2
				c0-0.3-0.1-0.6-0.3-0.9c-0.2-0.3-0.4-0.4-0.7-0.6c-0.3-0.1-0.9-0.2-1.8-0.2h-2V48.9z"/>
		</g>
	</g>
	<g>
		<path fill-rule="evenodd" clip-rule="evenodd" fill="#2164F3" d="M468.7,48.5c-1.6-1.9-3.8-2.8-6.7-2.8c-2.9,0-5.1,1-6.7,3
			c-1.5,2-2.4,5-2.4,8.9v28.3c-3.6-4-7.3-6.8-11.1-8.7c-2.4-1.2-5.1-2-8.2-2.5c-1.8-0.2-3.7-0.4-5.7-0.4c-9.5,0-17.2,3.4-23.1,10
			c-5.8,6.7-8.7,16-8.7,28c0,5.6,0.7,10.9,2.2,15.8c1.5,4.8,3.6,9,6.5,12.6c2.9,3.6,6.3,6.3,10.2,8.3c3.9,1.9,8.1,2.9,12.7,2.9
			c2.1,0,4.1-0.2,5.9-0.5c1.2-0.2,2.4-0.5,3.6-0.9c2.9-1,5.6-2.4,8.1-4.2c2.5-1.9,5.1-4.3,7.6-7.2v1.9c0,3.5,0.9,6.2,2.5,8.1
			c1.7,1.9,3.9,2.8,6.5,2.8c2.7,0,4.8-0.9,6.5-2.7c1.7-1.9,2.5-4.6,2.5-8.2V56.6C471,53.1,470.2,50.4,468.7,48.5z M449.4,126.5
			c-1.7,3.6-3.9,6.3-6.6,8c-2.8,1.7-5.8,2.6-9.2,2.6h-0.1c-3.4,0-6.4-0.9-9.2-2.7c-2.8-1.9-5-4.6-6.6-8.2c-1.6-3.7-2.4-8.1-2.4-13.3
			c0-4.9,0.7-9.2,2.3-12.9c1.5-3.7,3.7-6.6,6.4-8.6c2.8-2,5.9-3,9.4-3h0.2c3.3,0,6.3,1,9.1,2.9c2.8,1.9,5,4.7,6.7,8.4
			c1.7,3.7,2.5,8.1,2.5,13.1C451.9,118.4,451.1,122.9,449.4,126.5z"/>
		<path fill-rule="evenodd" clip-rule="evenodd" fill="#2164F3" d="M390.2,127.3c-1.2-1.1-2.8-1.6-4.8-1.6c-1.8,0-3.2,0.4-4.1,1.2
			c-2.4,2.2-4.3,4-5.8,5.3c-1.5,1.2-3.2,2.5-5,3.7c-1.7,1.1-3.6,2-5.5,2.5c-1.9,0.6-4,0.8-6.3,0.8c-0.5,0-1,0-1.4-0.1
			c-2.9-0.2-5.5-1-7.9-2.5c-2.9-1.7-5.1-4.1-6.8-7.4c-1.7-3.3-2.5-7.2-2.6-11.5h37.4c5,0,8.9-0.7,11.7-2.1c2.8-1.5,4.2-4.6,4.2-9.4
			c0-5.2-1.4-10.3-4-15.3c-2.7-5-6.6-9.1-12-12.2c-5.3-3.2-11.7-4.7-19.2-4.7h-0.6c-5.5,0.1-10.6,1-15.1,2.7
			c-4.7,1.9-8.7,4.5-12,7.9c-3.2,3.5-5.6,7.6-7.3,12.5c-1.7,4.8-2.5,10.1-2.5,15.7c0,12,3.4,21.5,10.2,28.5
			c6.4,6.6,15.4,10.1,26.7,10.5c0.6,0.1,1.3,0.1,2,0.1c5.3,0,10.1-0.7,14.3-2.1c4.2-1.4,7.6-3.2,10.3-5.3c2.7-2.2,4.8-4.4,6.1-6.7
			c1.4-2.3,2-4.3,2-6C392.1,129.9,391.4,128.4,390.2,127.3z M345.6,92.3c3-3.3,6.9-4.9,11.7-4.9h0.1c5,0,9,1.6,12,4.8
			c3,3.2,4.8,8.1,5.3,14.7H340C340.6,100.5,342.5,95.6,345.6,92.3z"/>
		<path fill-rule="evenodd" clip-rule="evenodd" fill="#2164F3" d="M308.9,125.7c-1.9,0-3.2,0.4-4.2,1.2c-2.4,2.2-4.3,4-5.8,5.3
			c-1.5,1.2-3.1,2.5-4.9,3.7c-1.8,1.1-3.6,2-5.5,2.5c-1.9,0.6-4,0.8-6.3,0.8c-0.5,0-1,0-1.4-0.1c-2.9-0.2-5.5-1-7.9-2.5
			c-2.8-1.7-5.1-4.1-6.7-7.4c-1.7-3.3-2.6-7.2-2.7-11.5h37.4c5,0,8.9-0.7,11.7-2.1c2.7-1.5,4.1-4.6,4.1-9.4c0-5.2-1.3-10.3-4-15.3
			c-2.7-5-6.7-9.1-12-12.2c-5.3-3.2-11.8-4.7-19.2-4.7h-0.6c-5.5,0.1-10.5,1-15.1,2.7c-4.7,1.9-8.7,4.5-11.9,7.9
			c-3.2,3.5-5.7,7.6-7.4,12.5c-1.7,4.8-2.5,10.1-2.5,15.7c0,12,3.5,21.5,10.3,28.5c6.4,6.6,15.3,10.1,26.7,10.5
			c0.7,0.1,1.3,0.1,2,0.1c5.4,0,10.1-0.7,14.3-2.1c4.2-1.4,7.6-3.2,10.3-5.3c2.8-2.2,4.8-4.4,6.1-6.7c1.4-2.3,2-4.3,2-6
			c0-1.9-0.6-3.5-1.8-4.5C312.5,126.3,310.9,125.7,308.9,125.7z M269,92.3c3-3.3,6.9-4.9,11.7-4.9h0.1c5,0,9,1.6,12,4.8
			c3.1,3.2,4.8,8.1,5.3,14.7h-34.7C264.1,100.5,266,95.6,269,92.3z"/>
		<path fill-rule="evenodd" clip-rule="evenodd" fill="#2164F3" d="M54.6,139.2V93.6c1.3,0.1,2.5,0.2,3.8,0.2c6.2,0,12-1.7,17-4.6
			v50.1c0,4.3-1,7.4-2.9,9.5c-1.9,2.1-4.5,3.2-7.6,3.2c-3,0-5.5-1-7.4-3.2C55.6,146.6,54.6,143.4,54.6,139.2L54.6,139.2z"/>
		<path fill-rule="evenodd" clip-rule="evenodd" fill="#2164F3" d="M234.7,48.5c-1.6-1.9-3.8-2.8-6.6-2.8c-2.9,0-5.1,1-6.7,3
			c-1.6,2-2.4,5-2.4,8.9v28.3c-3.6-4-7.3-6.8-11.1-8.7c-2.4-1.2-5.1-2-8.2-2.5c-1.8-0.2-3.7-0.4-5.7-0.4c-9.5,0-17.2,3.4-23.1,10
			c-5.8,6.7-8.7,16-8.7,28c0,5.6,0.7,10.9,2.2,15.8c1.5,4.8,3.7,9,6.5,12.6c2.8,3.6,6.3,6.3,10.2,8.3c3.9,1.9,8.1,2.9,12.7,2.9
			c2,0,4-0.2,5.9-0.5c1.2-0.2,2.4-0.5,3.6-0.9c2.9-1,5.6-2.4,8.1-4.2c2.5-1.9,5-4.3,7.6-7.2v1.9c0,3.5,0.9,6.2,2.5,8.1
			c1.7,1.9,3.9,2.8,6.5,2.8c2.5,0,4.8-0.9,6.5-2.7c1.7-1.9,2.5-4.6,2.5-8.2V56.6C237,53.1,236.2,50.4,234.7,48.5z M215.5,126.5
			c-1.7,3.6-3.9,6.3-6.7,8c-2.7,1.7-5.8,2.6-9.1,2.6h-0.1c-3.3,0-6.4-0.9-9.2-2.7c-2.9-1.9-5-4.6-6.6-8.2c-1.6-3.7-2.4-8.1-2.4-13.3
			c0-4.9,0.7-9.2,2.2-12.9c1.5-3.7,3.7-6.6,6.4-8.6c2.7-2,5.9-3,9.4-3h0.2c3.3,0,6.3,1,9.1,2.9c2.8,1.9,5.1,4.7,6.8,8.4
			c1.6,3.7,2.5,8.1,2.5,13.1C217.9,118.4,217.1,122.9,215.5,126.5z"/>
		<path fill-rule="evenodd" clip-rule="evenodd" fill="#2164F3" d="M106,84.7v2.4c3.4-4.5,7.1-7.7,11-9.8c4-2,8.6-3.1,13.8-3.1
			c5,0,9.6,1.1,13.5,3.3c4,2.2,6.9,5.3,8.9,9.3c1.3,2.4,2.1,4.9,2.5,7.6c0.4,2.7,0.6,6.1,0.6,10.3v35.5c0,3.8-0.9,6.7-2.7,8.7
			c-1.7,2-4,3-6.8,3c-2.8,0-5.1-1-6.9-3c-1.8-2-2.7-4.9-2.7-8.6v-31.8c0-6.3-0.9-11.2-2.6-14.5c-1.7-3.3-5.3-5-10.5-5
			c-3.4,0-6.5,1.1-9.3,3c-2.8,2-4.9,4.8-6.2,8.4c-0.9,2.9-1.4,8.1-1.4,16v23.9c0,3.9-0.9,6.7-2.7,8.7c-1.8,1.9-4.1,2.9-6.9,2.9
			c-2.8,0-5-1-6.8-3c-1.8-2-2.7-4.9-2.7-8.6V85c0-3.7,0.8-6.4,2.4-8.1c1.5-1.8,3.7-2.7,6.5-2.7c1.7,0,3.2,0.4,4.5,1.2
			c1.4,0.8,2.5,2,3.3,3.6C105.6,80.6,106,82.5,106,84.7z"/>
		<g>
			<path fill-rule="evenodd" clip-rule="evenodd" fill="#2164F3" d="M54.7,29.9c12.9-4.6,27.6-4.4,38.6,5.1c2,1.9,4.4,4.3,5.3,7.2
				c1.1,3.6-3.9-0.4-4.6-0.9c-3.6-2.4-7.2-4.3-11.2-5.7c-21.7-6.7-42.2,5.4-55,24.2c-5.3,8.3-8.8,17-11.7,26.7
				c-0.3,1.1-0.6,2.4-1.1,3.3c-0.6,1.1-0.2-2.8-0.2-3c0.4-4,1.2-7.8,2.2-11.6C23,54.7,36,37.7,54.7,29.9z"/>
			<path fill-rule="evenodd" clip-rule="evenodd" fill="#2164F3" d="M71.5,80.6c-7.7,4-17.2,0.9-21.1-6.9c-4-7.8-0.9-17.2,6.9-21.1
				c7.7-4,17.2-0.9,21.1,6.9C82.4,67.2,79.3,76.7,71.5,80.6z"/>
		</g>
	</g>
</g>
<g>
	<g>
		<path fill="#FF6600" d="M59.2,171.1v14.2h17.4v-14.2h4.4v33h-4.4V189H59.2v15.1h-4.4v-33H59.2z"/>
		<path fill="#FF6600" d="M85.8,187.3c0.5-1.5,1.2-2.8,2.2-4c1-1.1,2.2-2,3.6-2.7c1.4-0.6,3.1-1,5-1c1.9,0,3.6,0.3,5,1
			c1.4,0.6,2.6,1.5,3.6,2.7c1,1.1,1.7,2.4,2.2,4c0.5,1.5,0.7,3.2,0.7,4.9c0,1.8-0.2,3.4-0.7,4.9c-0.5,1.5-1.2,2.8-2.2,3.9
			c-1,1.1-2.2,2-3.6,2.6c-1.4,0.6-3.1,0.9-5,0.9c-1.9,0-3.5-0.3-5-0.9c-1.4-0.6-2.7-1.5-3.6-2.6c-1-1.1-1.7-2.4-2.2-3.9
			c-0.5-1.5-0.7-3.1-0.7-4.9C85,190.4,85.3,188.8,85.8,187.3z M89.8,196c0.4,1.1,0.9,2.1,1.6,2.8c0.7,0.8,1.5,1.3,2.4,1.7
			c0.9,0.4,1.9,0.6,2.9,0.6c1,0,2-0.2,2.9-0.6c0.9-0.4,1.7-1,2.4-1.7c0.7-0.8,1.2-1.7,1.6-2.8c0.4-1.1,0.6-2.4,0.6-3.9
			c0-1.4-0.2-2.7-0.6-3.9c-0.4-1.1-0.9-2.1-1.6-2.8c-0.7-0.8-1.5-1.4-2.4-1.8c-0.9-0.4-1.9-0.6-2.9-0.6c-1,0-2,0.2-2.9,0.6
			c-0.9,0.4-1.7,1-2.4,1.8c-0.7,0.8-1.2,1.7-1.6,2.8c-0.4,1.1-0.6,2.4-0.6,3.9C89.2,193.6,89.4,194.9,89.8,196z"/>
		<path fill="#FF6600" d="M131.2,204.1l-4.8-19h-0.1l-4.8,19h-4.2l-7.7-23.9h4.3l5.4,19.5h0.1l4.8-19.5h4.3l5,19.5h0.1l5.4-19.5h4.1
			l-7.6,23.9H131.2z"/>
		<path fill="#FF6600" d="M167.4,180.2v3.5h-4.8v14.8c0,0.5,0,0.8,0.1,1.1c0.1,0.3,0.2,0.5,0.4,0.6c0.2,0.2,0.5,0.3,0.9,0.3
			c0.4,0,0.9,0.1,1.5,0.1h1.8v3.5h-3c-1,0-1.9-0.1-2.6-0.2c-0.7-0.1-1.3-0.4-1.8-0.8c-0.4-0.4-0.8-0.9-1-1.6
			c-0.2-0.7-0.3-1.6-0.3-2.7v-15.2h-4.1v-3.5h4.1v-7.2h3.9v7.2H167.4z"/>
		<path fill="#FF6600" d="M174.6,171.1v12.6h0.1c0.3-0.7,0.7-1.4,1.3-1.9c0.6-0.5,1.2-0.9,1.9-1.2c0.7-0.3,1.4-0.6,2.2-0.7
			c0.8-0.2,1.5-0.2,2.2-0.2c1.6,0,2.9,0.2,3.9,0.6c1,0.4,1.9,1,2.5,1.8c0.6,0.8,1.1,1.7,1.4,2.7c0.3,1.1,0.4,2.2,0.4,3.5v15.7h-3.9
			v-16.2c0-1.5-0.4-2.6-1.3-3.5c-0.9-0.9-2-1.3-3.6-1.3c-1.2,0-2.2,0.2-3.1,0.6c-0.9,0.4-1.6,0.9-2.2,1.6c-0.6,0.7-1,1.5-1.3,2.4
			c-0.3,0.9-0.4,1.9-0.4,3v13.5h-3.9v-33H174.6z"/>
		<path fill="#FF6600" d="M212.1,202.6c-1.8,1.4-4,2-6.7,2c-1.9,0-3.6-0.3-5-0.9c-1.4-0.6-2.6-1.5-3.5-2.6c-1-1.1-1.7-2.4-2.1-4
			c-0.5-1.5-0.7-3.2-0.8-5c0-1.8,0.3-3.5,0.8-5c0.6-1.5,1.3-2.8,2.3-3.9c1-1.1,2.2-2,3.6-2.6c1.4-0.6,2.9-0.9,4.5-0.9
			c2.1,0,3.9,0.4,5.3,1.3c1.4,0.9,2.5,2,3.4,3.3c0.8,1.4,1.4,2.8,1.8,4.4c0.3,1.6,0.5,3.1,0.4,4.6H198c0,1,0.1,2,0.4,3
			c0.3,0.9,0.7,1.8,1.3,2.5c0.6,0.7,1.4,1.3,2.4,1.7c1,0.4,2.1,0.6,3.4,0.6c1.7,0,3-0.4,4.1-1.2c1.1-0.8,1.8-1.9,2.1-3.5h3.9
			C215,199.2,213.9,201.2,212.1,202.6z M211.1,187.2c-0.4-0.8-0.8-1.5-1.4-2.1c-0.6-0.6-1.3-1.1-2.1-1.4c-0.8-0.4-1.7-0.5-2.7-0.5
			c-1,0-1.9,0.2-2.7,0.5c-0.8,0.4-1.5,0.8-2.1,1.5c-0.6,0.6-1,1.3-1.4,2.1c-0.3,0.8-0.5,1.7-0.6,2.6h13.7
			C211.7,188.9,211.5,188.1,211.1,187.2z"/>
		<path fill="#FF6600" d="M262.7,187.3c0.5-1.5,1.2-2.8,2.2-4c1-1.1,2.2-2,3.6-2.7c1.4-0.6,3.1-1,5-1c1.9,0,3.6,0.3,5,1
			c1.4,0.6,2.6,1.5,3.6,2.7c1,1.1,1.7,2.4,2.2,4c0.5,1.5,0.7,3.2,0.7,4.9c0,1.8-0.2,3.4-0.7,4.9c-0.5,1.5-1.2,2.8-2.2,3.9
			c-1,1.1-2.2,2-3.6,2.6c-1.4,0.6-3.1,0.9-5,0.9c-1.9,0-3.5-0.3-5-0.9c-1.4-0.6-2.7-1.5-3.6-2.6c-1-1.1-1.7-2.4-2.2-3.9
			c-0.5-1.5-0.7-3.1-0.7-4.9C262,190.4,262.2,188.8,262.7,187.3z M266.7,196c0.4,1.1,0.9,2.1,1.6,2.8c0.7,0.8,1.5,1.3,2.4,1.7
			c0.9,0.4,1.9,0.6,2.9,0.6c1,0,2-0.2,2.9-0.6c0.9-0.4,1.7-1,2.4-1.7c0.7-0.8,1.2-1.7,1.6-2.8c0.4-1.1,0.6-2.4,0.6-3.9
			c0-1.4-0.2-2.7-0.6-3.9c-0.4-1.1-0.9-2.1-1.6-2.8c-0.7-0.8-1.5-1.4-2.4-1.8c-0.9-0.4-1.9-0.6-2.9-0.6c-1,0-2,0.2-2.9,0.6
			c-0.9,0.4-1.7,1-2.4,1.8c-0.7,0.8-1.2,1.7-1.6,2.8c-0.4,1.1-0.6,2.4-0.6,3.9C266.1,193.6,266.3,194.9,266.7,196z"/>
		<path fill="#FF6600" d="M292.2,180.2v5h0.1c1-1.9,2.1-3.4,3.5-4.3c1.4-0.9,3.1-1.4,5.3-1.3v4.2c-1.6,0-2.9,0.2-4,0.6
			c-1.1,0.4-2,1.1-2.7,1.9c-0.7,0.8-1.2,1.8-1.5,3c-0.3,1.2-0.5,2.5-0.5,4.1v10.6h-3.9v-23.9H292.2z"/>
		<path fill="#FF6600" d="M307,171.1v33h-3.9v-33H307z"/>
		<path fill="#FF6600" d="M329.4,204.1v-3.2h-0.1c-0.6,1.3-1.7,2.3-3,2.9c-1.4,0.6-2.9,0.9-4.6,0.9c-1.8,0-3.5-0.3-4.8-1
			c-1.4-0.7-2.5-1.6-3.4-2.7c-0.9-1.1-1.6-2.5-2.1-4c-0.5-1.5-0.7-3.1-0.7-4.8c0-1.7,0.2-3.3,0.7-4.8c0.4-1.5,1.1-2.8,2-4
			c0.9-1.1,2-2,3.4-2.7c1.4-0.7,3-1,4.8-1c0.6,0,1.3,0.1,2,0.2c0.7,0.1,1.4,0.3,2.1,0.6c0.7,0.3,1.4,0.7,2,1.2
			c0.6,0.5,1.2,1.1,1.6,1.8h0.1v-12.3h3.9v33H329.4z M315.3,195.6c0.3,1.1,0.7,2,1.3,2.8c0.6,0.8,1.4,1.5,2.3,2
			c0.9,0.5,2,0.7,3.3,0.7c1.3,0,2.4-0.3,3.4-0.8c0.9-0.5,1.7-1.2,2.3-2.1c0.6-0.8,1-1.8,1.3-2.9c0.3-1.1,0.4-2.2,0.4-3.3
			c0-1.2-0.1-2.3-0.4-3.4c-0.3-1.1-0.7-2.1-1.3-2.9c-0.6-0.8-1.4-1.5-2.3-2c-1-0.5-2.1-0.8-3.5-0.8c-1.3,0-2.4,0.3-3.4,0.8
			c-0.9,0.5-1.7,1.2-2.2,2.1c-0.6,0.9-1,1.8-1.2,3c-0.2,1.1-0.4,2.2-0.4,3.4C314.8,193.5,315,194.6,315.3,195.6z"/>
		<path fill="#FF6600" d="M380,187.3c0.5-1.5,1.2-2.8,2.2-4c1-1.1,2.2-2,3.6-2.7c1.4-0.6,3.1-1,5-1c1.9,0,3.6,0.3,5,1
			c1.4,0.6,2.6,1.5,3.6,2.7c1,1.1,1.7,2.4,2.2,4c0.5,1.5,0.7,3.2,0.7,4.9c0,1.8-0.2,3.4-0.7,4.9c-0.5,1.5-1.2,2.8-2.2,3.9
			c-1,1.1-2.2,2-3.6,2.6c-1.4,0.6-3.1,0.9-5,0.9c-1.9,0-3.5-0.3-5-0.9c-1.4-0.6-2.7-1.5-3.6-2.6c-1-1.1-1.7-2.4-2.2-3.9
			c-0.5-1.5-0.7-3.1-0.7-4.9C379.3,190.4,379.5,188.8,380,187.3z M384,196c0.4,1.1,0.9,2.1,1.6,2.8c0.7,0.8,1.5,1.3,2.4,1.7
			c0.9,0.4,1.9,0.6,2.9,0.6c1,0,2-0.2,2.9-0.6c0.9-0.4,1.7-1,2.4-1.7c0.7-0.8,1.2-1.7,1.6-2.8c0.4-1.1,0.6-2.4,0.6-3.9
			c0-1.4-0.2-2.7-0.6-3.9c-0.4-1.1-0.9-2.1-1.6-2.8c-0.7-0.8-1.5-1.4-2.4-1.8c-0.9-0.4-1.9-0.6-2.9-0.6c-1,0-2,0.2-2.9,0.6
			c-0.9,0.4-1.7,1-2.4,1.8c-0.7,0.8-1.2,1.7-1.6,2.8c-0.4,1.1-0.6,2.4-0.6,3.9C383.5,193.6,383.6,194.9,384,196z"/>
		<path fill="#FF6600" d="M409.5,180.2v5h0.1c1-1.9,2.1-3.4,3.5-4.3c1.4-0.9,3.1-1.4,5.3-1.3v4.2c-1.6,0-2.9,0.2-4,0.6
			c-1.1,0.4-2,1.1-2.7,1.9c-0.7,0.8-1.2,1.8-1.5,3c-0.3,1.2-0.5,2.5-0.5,4.1v10.6h-3.9v-23.9H409.5z"/>
		<path fill="#FF6600" d="M424.3,171.1v19.5l10.9-10.4h5.3l-9.5,8.7l10.2,15.2h-5l-8.2-12.5l-3.7,3.4v9.1h-3.9v-33H424.3z"/>
		<path fill="#FF6600" d="M446,198.8c0.4,0.6,0.9,1.1,1.5,1.4c0.6,0.4,1.3,0.6,2,0.8c0.8,0.2,1.5,0.2,2.3,0.2c0.6,0,1.3,0,1.9-0.1
			c0.7-0.1,1.3-0.3,1.9-0.5c0.6-0.2,1-0.6,1.4-1.1c0.4-0.5,0.6-1.1,0.6-1.8c0-1-0.4-1.8-1.2-2.3c-0.8-0.5-1.7-0.9-2.9-1.3
			c-1.2-0.3-2.4-0.6-3.8-0.9c-1.4-0.3-2.6-0.6-3.8-1.1c-1.2-0.5-2.1-1.1-2.9-2c-0.8-0.9-1.2-2.1-1.2-3.6c0-1.2,0.3-2.2,0.8-3.1
			c0.5-0.9,1.2-1.6,2.1-2.1c0.8-0.5,1.8-0.9,2.9-1.2c1.1-0.3,2.1-0.4,3.2-0.4c1.4,0,2.6,0.1,3.7,0.3c1.1,0.2,2.1,0.6,3,1.2
			c0.9,0.6,1.6,1.3,2.1,2.3c0.5,1,0.8,2.2,0.9,3.6h-3.9c-0.1-0.8-0.3-1.4-0.6-1.9c-0.3-0.5-0.8-0.9-1.3-1.2
			c-0.5-0.3-1.1-0.5-1.7-0.7c-0.6-0.1-1.3-0.2-1.9-0.2c-0.6,0-1.2,0-1.8,0.1c-0.6,0.1-1.1,0.3-1.6,0.5c-0.5,0.2-0.9,0.5-1.2,0.9
			c-0.3,0.4-0.5,0.9-0.5,1.5c0,0.7,0.2,1.2,0.7,1.7c0.5,0.4,1.1,0.8,1.8,1.1c0.7,0.3,1.6,0.5,2.5,0.7c0.9,0.2,1.8,0.4,2.8,0.6
			c1,0.2,1.9,0.5,2.9,0.8c0.9,0.3,1.8,0.7,2.5,1.2c0.7,0.5,1.3,1.1,1.8,1.9c0.4,0.8,0.7,1.7,0.7,2.9c0,1.4-0.3,2.6-0.9,3.6
			c-0.6,1-1.4,1.7-2.4,2.3c-1,0.6-2.1,1-3.3,1.2c-1.2,0.2-2.4,0.3-3.6,0.3c-1.3,0-2.6-0.1-3.8-0.4c-1.2-0.3-2.3-0.7-3.2-1.4
			c-0.9-0.6-1.7-1.5-2.2-2.5c-0.6-1-0.9-2.3-0.9-3.8h3.9C445.4,197.4,445.6,198.2,446,198.8z"/>
		<path fill="#FF6600" d="M470.9,199v5.1h-5.1V199H470.9z"/>
	</g>
	<path fill="#FF6600" d="M249.9,204.1l-4.8-19H245l-4.8,19h-4.2l-7.7-23.9h4.3l5.4,19.5h0.1l4.8-19.5h4.3l5,19.5h0.1l5.4-19.5h4.1
		l-7.6,23.9H249.9z"/>
	<path fill="#FF6600" d="M367.2,204.1l-4.8-19h-0.1l-4.8,19h-4.2l-7.7-23.9h4.3l5.4,19.5h0.1l4.8-19.5h4.3l5,19.5h0.1l5.4-19.5h4.1
		l-7.6,23.9H367.2z"/>
</g>
<g>
	<path fill="#FF6600" d="M459.8,170.7h4.6v0.9h-1.8v4.8h-1v-4.8h-1.8V170.7z"/>
	<path fill="#FF6600" d="M465.1,170.7h1.4l1.6,4.5h0l1.5-4.5h1.4v5.7h-1V172h0l-1.6,4.4h-0.8l-1.6-4.4h0v4.4h-1V170.7z"/>
</g>
</svg>
